# xmcd
#
# Track frame offsets:
#	150
#	23682
#	50186
#	74312
#	94111
#	119476
#	143878
#	167971
#	201735
#	228145
#
# Disc length: 3279 seconds
# Revision: 0
# Processed by: cddbd v1.5.2PL0 Copyright (c) Steve Scherf et al.
# Submitted via: dBpowerAMP V12.0
#
DISCID=940ccd0a
DTITLE=Joe Louis Walker - Live at Slims Volume 1 [Demon] (s)
DYEAR=1991
DGENRE=Blues
TTITLE0=I Didn't Know
TTITLE1=Moanin' News
TTITLE2=Don't Play Games
TTITLE3=Don't Mess Up A Good Thing
TTITLE4=Ridin' High
TTITLE5=Fuss and Fight
TTITLE6=One Time Around
TTITLE7=Don't Know Why
TTITLE8=Bit By Bit (Little by Little)
TTITLE9=Hot Tamale Baby
EXTD=
EXTT0=
EXTT1=
EXTT2=
EXTT3=
EXTT4=
EXTT5=
EXTT6=
EXTT7=
EXTT8=
EXTT9=
PLAYORDER=
